<svg width="16" height="16" viewBox="0 0 16 16" fill="none" xmlns="http://www.w3.org/2000/svg">
<path d="M4.8291 1.24988C5.06611 1.24988 5.32358 1.24419 5.57129 1.3114C5.77073 1.36555 5.95955 1.45428 6.12793 1.5741C6.33693 1.72289 6.49523 1.92609 6.64551 2.10925L6.67676 2.14636C6.96704 2.50014 7.02947 2.56681 7.0918 2.61121C7.16381 2.66238 7.24482 2.70034 7.33008 2.72351C7.40392 2.74351 7.49471 2.74988 7.95215 2.74988H11.6201C11.8485 2.74988 12.0613 2.7491 12.2402 2.76257C12.4286 2.7768 12.6334 2.8095 12.8408 2.90222C13.1413 3.03667 13.3981 3.25357 13.5811 3.52722C13.7073 3.71605 13.7737 3.91227 13.8193 4.09558C13.8627 4.26987 13.8982 4.48045 13.9365 4.70593L14.0293 5.24988H14.0967C14.2523 5.24988 14.4179 5.24934 14.5576 5.2616C14.6671 5.2712 14.8077 5.29122 14.9551 5.35046L15.1045 5.42468L15.1982 5.48523C15.4098 5.63759 15.5688 5.85349 15.6523 6.10242C15.7259 6.32171 15.7153 6.5253 15.6973 6.67078C15.68 6.81004 15.6449 6.97263 15.6123 7.12488L14.7256 11.2596C14.6554 11.5871 14.5947 11.873 14.5264 12.1063C14.4554 12.3487 14.3634 12.5846 14.2061 12.8055C13.9679 13.1398 13.6424 13.4025 13.2656 13.5653C13.0166 13.6729 12.7665 13.7137 12.5146 13.7323C12.2722 13.7502 11.9804 13.7499 11.6455 13.7499H4.50781C4.00419 13.7499 3.58309 13.7506 3.23828 13.7235C2.88429 13.6957 2.5513 13.6354 2.23145 13.4833C1.73783 13.2484 1.32446 12.8716 1.0459 12.4012C0.865414 12.0964 0.77556 11.7699 0.71582 11.4198C0.657654 11.0787 0.619831 10.6588 0.574219 10.1571L0.0771484 4.68542C0.037061 4.24446 0.00195328 3.86633 0 3.55652C-0.00197379 3.23883 0.0284887 2.91887 0.163086 2.6073C0.3626 2.14565 0.7116 1.76376 1.15332 1.52332C1.45124 1.36129 1.76667 1.30206 2.08301 1.27527C2.39168 1.24917 2.77117 1.24988 3.21387 1.24988H4.8291ZM3.21387 2.74988C2.74543 2.74988 2.44074 2.75088 2.20996 2.77039C1.98783 2.78918 1.90732 2.82052 1.87012 2.8407C1.723 2.92079 1.60656 3.0483 1.54004 3.20203C1.5233 3.24077 1.4986 3.32414 1.5 3.54773C1.50149 3.77932 1.52791 4.08323 1.57031 4.54968L1.96875 8.92957L2.69922 6.3739C2.7402 6.23038 2.80681 5.9484 2.98047 5.72742L3.08789 5.6073C3.20321 5.49424 3.3398 5.40412 3.49023 5.34265L3.58887 5.30847C3.82082 5.23972 4.05888 5.24988 4.18945 5.24988H12.5078L12.458 4.95691C12.4159 4.70951 12.3908 4.5645 12.3643 4.45789C12.3493 4.39783 12.3382 4.37053 12.334 4.36121C12.3079 4.32217 12.2714 4.29055 12.2285 4.27136C12.2411 4.27698 12.2278 4.26623 12.1279 4.25867C12.0184 4.25041 11.871 4.24988 11.6201 4.24988H7.95215C7.57609 4.24988 7.2486 4.25648 6.93652 4.17175C6.68014 4.10211 6.43814 3.98694 6.22168 3.83289C5.95827 3.64535 5.75514 3.38825 5.5166 3.09753L5.48633 3.06042C5.39362 2.94744 5.34067 2.88376 5.29883 2.83777C5.27277 2.80915 5.26086 2.79826 5.25781 2.79578C5.23394 2.77886 5.20694 2.76637 5.17871 2.75867C5.1745 2.75782 5.15841 2.75477 5.12012 2.75281C5.05799 2.74965 4.97533 2.74988 4.8291 2.74988H3.21387Z" fill="black"/>
</svg>
