<svg width="16" height="16" viewBox="0 0 16 16" fill="none" xmlns="http://www.w3.org/2000/svg">
<path d="M6.16016 1.25485C6.59041 1.28769 6.99373 1.47818 7.29199 1.79001C7.34258 1.8429 7.38849 1.90051 7.43164 1.95309C7.56496 2.11557 7.60711 2.16671 7.64844 2.20993C7.94672 2.52176 8.35 2.71228 8.78027 2.74509C8.83994 2.74963 8.90672 2.74997 9.11719 2.74997H11.0996C11.5073 2.74997 11.8587 2.74892 12.1465 2.77243C12.4429 2.79666 12.7378 2.85054 13.0215 2.99509C13.4448 3.2108 13.7892 3.55513 14.0049 3.97849C14.1494 4.26219 14.2033 4.55706 14.2275 4.85349C14.2492 5.1187 14.249 5.43806 14.249 5.80563C14.5205 6.04288 14.7336 6.34266 14.8662 6.68259C14.994 7.01023 15.0097 7.34368 14.9912 7.67282C14.9731 7.99459 14.9172 8.38646 14.8516 8.84567L14.5371 11.0459C14.4866 11.3997 14.4425 11.7066 14.3867 11.958C14.3289 12.2185 14.2474 12.4737 14.0928 12.7148C13.8597 13.078 13.5272 13.3674 13.1348 13.5468C12.8741 13.6659 12.609 13.7101 12.3428 13.7304C12.0861 13.7501 11.7761 13.75 11.4189 13.75H4.26758C3.80357 13.75 3.40708 13.7502 3.08594 13.7226C2.75776 13.6944 2.43006 13.6325 2.12402 13.4599C1.77297 13.2618 1.48426 12.9733 1.28418 12.6279C1.19633 12.5084 1.11778 12.3814 1.0498 12.248C0.878101 11.9109 0.810328 11.5545 0.779297 11.1748C0.748976 10.8036 0.75 10.3474 0.75 9.79977V4.40036C0.75 3.99271 0.748951 3.64123 0.772461 3.35349C0.796693 3.05706 0.85057 2.76219 0.995117 2.47849C1.21083 2.05513 1.55516 1.7108 1.97852 1.49509C2.26223 1.35054 2.55708 1.29666 2.85352 1.27243C3.14127 1.24892 3.49273 1.24997 3.90039 1.24997H5.94531C6.01334 1.24997 6.08718 1.2493 6.16016 1.25485ZM4.58105 6.74997C4.20101 6.74997 3.95778 6.75037 3.77148 6.76462C3.59487 6.77814 3.52564 6.80076 3.48926 6.81735C3.3585 6.87712 3.24761 6.97373 3.16992 7.0947C3.14837 7.12828 3.11555 7.19319 3.07715 7.36618C3.03666 7.54869 3.00205 7.79033 2.94824 8.16696L2.63379 10.3662C2.56447 10.8514 2.51951 11.1687 2.50586 11.4111C2.49266 11.6461 2.51586 11.733 2.53125 11.7724C2.53666 11.7863 2.54459 11.799 2.55078 11.8125C2.65653 11.936 2.78595 12.0385 2.93262 12.1133C3.02316 12.1594 3.16028 12.2021 3.44727 12.2256C3.74314 12.2497 4.12777 12.25 4.7002 12.25H11.4189C11.799 12.25 12.0422 12.2496 12.2285 12.2353C12.4051 12.2218 12.4743 12.1992 12.5107 12.1826C12.6415 12.1228 12.7524 12.0262 12.8301 11.9052C12.8516 11.8717 12.8844 11.8068 12.9229 11.6338C12.9633 11.4512 12.998 11.2096 13.0518 10.833L13.3662 8.63376C13.4355 8.1485 13.4805 7.83119 13.4941 7.58884C13.5073 7.35379 13.4841 7.26696 13.4688 7.22751C13.4059 7.06643 13.2893 6.93164 13.1387 6.84665C13.1016 6.82581 13.0187 6.79154 12.7852 6.77145C12.5433 6.75066 12.2228 6.74997 11.7324 6.74997H4.58105ZM3.90039 2.74997C3.46798 2.74997 3.18809 2.75019 2.97559 2.76755C2.77204 2.7842 2.69625 2.81311 2.65918 2.832C2.51836 2.90385 2.40388 3.01833 2.33203 3.15915C2.31315 3.19622 2.28423 3.27202 2.26758 3.47556C2.25022 3.68805 2.25 3.96796 2.25 4.40036V5.87009C2.42974 5.69877 2.6373 5.5573 2.86523 5.45309C3.12586 5.33398 3.39102 5.28988 3.65723 5.2695C3.9139 5.24988 4.22385 5.24997 4.58105 5.24997H11.7324C12.1177 5.24997 12.4564 5.25082 12.7441 5.26657C12.7416 5.15535 12.7393 5.06009 12.7324 4.97556C12.7158 4.77202 12.6869 4.69622 12.668 4.65915C12.5961 4.51834 12.4816 4.40385 12.3408 4.332C12.3037 4.31311 12.2279 4.28419 12.0244 4.26755C11.8119 4.25019 11.532 4.24997 11.0996 4.24997H9.11719C8.92997 4.24997 8.79672 4.25006 8.66699 4.2402C7.86767 4.17935 7.11852 3.8254 6.56445 3.24606C6.47452 3.15201 6.39026 3.04903 6.27148 2.90427C6.24503 2.87202 6.23027 2.85345 6.21875 2.83981C6.21213 2.83198 6.20907 2.82829 6.20801 2.82712C6.16539 2.78256 6.10738 2.75563 6.0459 2.75095C6.04449 2.75087 6.03979 2.75013 6.0293 2.74997H3.90039Z" fill="black"/>
</svg>
