<svg width="24" height="24" viewBox="0 0 24 24" fill="none" xmlns="http://www.w3.org/2000/svg">
<path d="M12 1C15.7318 1 17.5976 1.00014 19.0371 1.69336C20.4659 2.38141 21.6186 3.53414 22.3066 4.96289C22.9999 6.40237 23 8.2682 23 12C23 15.7318 22.9999 17.5976 22.3066 19.0371C21.6186 20.4659 20.4659 21.6186 19.0371 22.3066C17.5976 22.9999 15.7318 23 12 23C8.50156 23 6.64302 22.9998 5.23828 22.4287L4.96289 22.3066C3.62336 21.6616 2.52596 20.6083 1.82715 19.3018L1.69336 19.0371C1.00014 17.5976 1 15.7318 1 12C1 8.50156 1.00016 6.64302 1.57129 5.23828L1.69336 4.96289C2.33845 3.62336 3.39171 2.52596 4.69824 1.82715L4.96289 1.69336C6.40237 1.00014 8.2682 1 12 1ZM12 3C10.1029 3 8.79455 3.00187 7.77734 3.08105C6.78214 3.15854 6.23395 3.30117 5.83105 3.49512C4.81052 3.98658 3.98658 4.81052 3.49512 5.83105C3.30117 6.23395 3.15854 6.78214 3.08105 7.77734C3.00187 8.79455 3 10.1029 3 12C3 13.8971 3.00187 15.2055 3.08105 16.2227C3.15854 17.2179 3.30117 17.766 3.49512 18.1689C3.98658 19.1895 4.81052 20.0134 5.83105 20.5049C6.23395 20.6988 6.78214 20.8415 7.77734 20.9189C8.79455 20.9981 10.1029 21 12 21C13.8971 21 15.2055 20.9981 16.2227 20.9189C17.2179 20.8415 17.766 20.6988 18.1689 20.5049C19.1895 20.0134 20.0134 19.1895 20.5049 18.1689C20.6988 17.766 20.8415 17.2179 20.9189 16.2227C20.9981 15.2055 21 13.8971 21 12C21 10.1029 20.9981 8.79455 20.9189 7.77734C20.8415 6.78214 20.6988 6.23395 20.5049 5.83105C20.0134 4.81052 19.1895 3.98658 18.1689 3.49512C17.766 3.30117 17.2179 3.15854 16.2227 3.08105C15.2055 3.00187 13.8971 3 12 3ZM16 14C16.5523 14 17 14.4477 17 15C17 15.5523 16.5523 16 16 16H12C11.4477 16 11 15.5523 11 15C11 14.4477 11.4477 14 12 14H16ZM6.29297 7.29297C6.6835 6.90247 7.31652 6.90245 7.70703 7.29297L10.707 10.293C11.0975 10.6835 11.0975 11.3165 10.707 11.707L7.70703 14.707C7.31652 15.0975 6.6835 15.0975 6.29297 14.707C5.90244 14.3165 5.90244 13.6835 6.29297 13.293L8.58594 11L6.29297 8.70703C5.90244 8.31651 5.90244 7.68349 6.29297 7.29297Z" fill="black"/>
</svg>
