<svg width="48" height="48" viewBox="0 0 48 48" fill="none" xmlns="http://www.w3.org/2000/svg">
<path d="M16.1703 0.918201C18.0971 0.125453 20.1948 -0.160962 22.2636 0.0862194C24.9303 0.392879 27.3063 1.52619 29.3917 3.48614C29.4183 3.51281 29.4557 3.53148 29.4903 3.54214C29.528 3.55141 29.5673 3.55141 29.605 3.54214C32.3161 2.84205 35.1859 3.10113 37.7277 4.27546L37.853 4.33412L38.1624 4.48612C40.8231 5.83465 42.8985 8.11008 43.9971 10.8833C44.5544 12.2433 44.8317 13.6592 44.8371 15.1365C44.8772 16.2352 44.7568 17.3339 44.4797 18.3978C44.4661 18.4515 44.4662 18.5078 44.4802 18.5614C44.4942 18.6151 44.5216 18.6643 44.5597 18.7045C46.1437 20.3231 47.1944 22.2511 47.7144 24.491C48.4851 28.2909 47.6958 31.7175 45.3491 34.7681L44.9864 35.2108C43.4322 36.9898 41.3922 38.2762 39.117 38.912C39.0677 38.9265 39.0224 38.9524 38.9849 38.9876C38.9473 39.0228 38.9186 39.0663 38.901 39.1147C38.3917 40.584 37.8797 41.8426 36.9277 43.0986C34.5277 46.2639 31.0023 48.0211 27.0316 47.9998C23.8663 47.9838 21.0609 46.8265 18.6129 44.5279C18.5761 44.4934 18.5308 44.4693 18.4816 44.4581C18.4324 44.4468 18.3811 44.4488 18.3329 44.4639C17.2983 44.7972 16.2529 44.8452 15.1223 44.8319C13.3214 44.8174 11.5475 44.3924 9.93556 43.5892C8.2471 42.7526 6.77704 41.5336 5.6422 40.0293C5.23687 39.4907 4.8342 38.984 4.5382 38.384C4.1341 37.5607 3.80392 36.7031 3.55153 35.8214C3.01873 33.8151 3.00588 31.7062 3.51419 29.6936C3.53091 29.6457 3.53638 29.5946 3.53019 29.5442C3.52106 29.4948 3.49573 29.4497 3.45819 29.4162C2.22637 28.1694 1.28487 26.6662 0.700845 25.0137C0.312445 23.9958 0.0865724 22.9231 0.0315083 21.8351C-0.0653697 20.402 0.0614837 18.9625 0.40751 17.5685C1.30618 14.6032 3.02619 12.2753 5.5622 10.5873C6.12754 10.2113 6.66354 9.918 7.16488 9.70734C7.73821 9.47001 8.31155 9.27001 8.88755 9.10202C8.92872 9.08925 8.96609 9.0665 8.99633 9.03579C9.02657 9.00508 9.04875 8.96737 9.06089 8.92602C9.49826 7.3555 10.2504 5.8903 11.2716 4.61945C12.5589 2.98484 14.2461 1.71001 16.1703 0.918201ZM25.4556 29.0909C25.0223 29.1152 24.6147 29.3045 24.3165 29.6199C24.0183 29.9353 23.8521 30.3528 23.8521 30.7869C23.8521 31.2209 24.0183 31.6385 24.3165 31.9539C24.6147 32.2692 25.0223 32.4585 25.4556 32.4828H35.1517C35.3824 32.4958 35.6133 32.4615 35.8304 32.3821C36.0474 32.3027 36.2459 32.1799 36.4139 32.0212C36.5818 31.8624 36.7155 31.6711 36.8069 31.4588C36.8984 31.2466 36.9455 31.0179 36.9455 30.7869C36.9455 30.5558 36.8984 30.3271 36.8069 30.1149C36.7155 29.9027 36.5818 29.7113 36.4139 29.5526C36.2459 29.3938 36.0474 29.271 35.8304 29.1916C35.6133 29.1122 35.3824 29.078 35.1517 29.0909H25.4556ZM14.5649 16.6138C14.3341 16.238 13.9662 15.9666 13.539 15.8571C13.1117 15.7477 12.6586 15.8087 12.2755 16.0272C11.8924 16.2458 11.6094 16.6048 11.4862 17.0283C11.3631 17.4518 11.4094 17.9066 11.6156 18.2965L15.0076 24.227L11.6316 29.9229C11.5179 30.1146 11.4432 30.3268 11.4116 30.5475C11.3799 30.7681 11.3921 30.9928 11.4473 31.2087C11.5025 31.4246 11.5997 31.6275 11.7334 31.8059C11.867 31.9842 12.0345 32.1345 12.2262 32.2482C12.418 32.3618 12.6302 32.4366 12.8508 32.4682C13.0715 32.4998 13.2961 32.4876 13.5121 32.4324C13.728 32.3772 13.9309 32.28 14.1093 32.1463C14.2877 32.0127 14.4379 31.8452 14.5516 31.6535L18.4289 25.107C18.5818 24.8491 18.6636 24.5553 18.6659 24.2555C18.6683 23.9557 18.5911 23.6606 18.4423 23.4004L14.5649 16.6138Z" fill="url(#paint0_linear_69_2491)"/>
<defs>
<linearGradient id="paint0_linear_69_2491" x1="23.9996" y1="0.000887959" x2="23.9996" y2="47.9998" gradientUnits="userSpaceOnUse">
<stop stop-color="#B1A7FF" style="stop-color:#B1A7FF;stop-color:color(display-p3 0.6941 0.6549 1.0000);stop-opacity:1;"/>
<stop offset="0.5" stop-color="#7A9DFF" style="stop-color:#7A9DFF;stop-color:color(display-p3 0.4784 0.6157 1.0000);stop-opacity:1;"/>
<stop offset="1" stop-color="#3941FF" style="stop-color:#3941FF;stop-color:color(display-p3 0.2235 0.2549 1.0000);stop-opacity:1;"/>
</linearGradient>
</defs>
</svg>
